<?xml version="1.0" encoding="UTF-8" standalone="no"?><svg xmlns="http://www.w3.org/2000/svg" xmlns:xlink="http://www.w3.org/1999/xlink" contentScriptType="text/ecmascript" fill="#007ac8" width="403.5" zoomAndPan="magnify" contentStyleType="text/css" viewBox="0.0 0.0 403.5 387.6" height="387.6" preserveAspectRatio="xMidYMid meet" version="1"><g id="change1_1"><path d="M384.14,283.02c-12.34-13.53-31.53-27.62-54.65-39.09l-0.3-0.15c-2.25-1.11-4.49-2.16-6.73-3.19v-18.78v-45.05v-45.05V86.67 V41.63c0-12.61-11.7-23.47-30.62-30.83C274.72,4.13,251.22,0,225.4,0c-25.82,0-49.32,4.13-66.45,10.79 c-18.91,7.36-30.62,18.22-30.62,30.83v45.05v39.61c-9.8-1.36-20.32-2.11-31.27-2.11c-25.82,0-49.32,4.13-66.45,10.79 C11.7,142.33,0,153.19,0,165.8v45.05v45.05v45.05v0v45.05c0,12.61,11.7,23.47,30.62,30.83c17.13,6.67,40.63,10.79,66.45,10.79 c25.82,0,49.32-4.13,66.45-10.79c16.19-6.3,27.09-15.17,29.89-25.5c3.97,0.56,8.04,1.04,12.23,1.39c6.4,0.54,13.01,0.82,19.76,0.82 c6.05,0,12.03-0.23,17.88-0.68c5.06-0.38,10.07-0.96,14.99-1.68c4.49,2.61,9.16,5.15,14.02,7.56l0.3,0.15 c23.09,11.42,45.94,18.13,64.2,19.75c20.19,1.79,35.48-2.75,41.07-14.05l19.99-40.37C403.46,312.91,397.8,298,384.14,283.02z M323.84,255.11c21.73,10.77,39.64,23.87,51.03,36.35v0c10.1,11.07,14.82,21.01,11.76,27.19c0,0,0,0,0,0l0,0l-0.01,0.01 c-3.07,6.18-13.84,8.45-28.75,7.12c-16.81-1.49-38.1-7.81-59.9-18.61c-21.74-10.77-39.66-23.88-51.05-36.37 c-10.1-11.07-14.81-21.01-11.75-27.19l0,0c3.06-6.18,13.83-8.46,28.75-7.13c14.16,1.26,31.51,5.95,49.65,13.85 c0.1,0.05,0.2,0.09,0.3,0.13c3.29,1.44,6.6,2.97,9.93,4.62L323.84,255.11z M203.92,278.45c-2.41,4.86-2.73,10.4-1.23,16.31 c-0.73-0.08-1.46-0.14-2.18-0.22c-2.15-0.25-4.27-0.53-6.38-0.84v-32.37c3.07,0.42,6.25,0.79,9.56,1.1 c2.58,0.24,5.21,0.43,7.88,0.59L203.92,278.45z M309.9,221.81L309.9,221.81c0,1.88-0.7,3.78-2.02,5.67 c-1.23,1.77-2.96,3.5-5.12,5.18c-13.64-4.73-26.57-7.65-37.77-8.64c-20.19-1.79-35.48,2.75-41.07,14.05l-6.28,12.68 c-4.37-0.15-8.65-0.42-12.82-0.8c-3.58-0.33-7.15-0.78-10.69-1.3v-32.37c3.74,0.52,7.57,0.96,11.51,1.29 c6.4,0.54,13.01,0.82,19.76,0.82c25.82,0,49.32-4.13,66.45-10.79c7.12-2.77,13.21-6.04,18.05-9.7V221.81z M309.9,176.77 c0,6.91-8.62,13.72-22.57,19.15c-15.72,6.12-37.61,9.91-61.93,9.91c-6.46,0-12.72-0.27-18.73-0.77c-4.31-0.36-8.49-0.85-12.54-1.45 v-32.36c3.72,0.51,7.53,0.95,11.44,1.28c6.41,0.54,13.05,0.83,19.82,0.83c25.82,0,49.32-4.13,66.45-10.79 c7.12-2.77,13.21-6.04,18.05-9.7V176.77z M309.9,86.67c0,6.91-8.62,13.72-22.57,19.15c-15.72,6.12-37.61,9.91-61.93,9.91 c-24.32,0-46.21-3.79-61.93-9.91c-13.94-5.43-22.57-12.24-22.57-19.15V62.76c4.84,3.67,10.93,6.93,18.05,9.7 c17.13,6.67,40.63,10.79,66.45,10.79c25.82,0,49.32-4.13,66.45-10.79c7.12-2.77,13.21-6.04,18.05-9.7V86.67z M140.66,128.4 c-0.33-6.36-0.28-13.64-0.13-20.89c4.9,3.79,11.12,7.15,18.42,10c17.13,6.67,40.63,10.79,66.45,10.79 c25.82,0,49.32-4.13,66.45-10.79c7.12-2.77,13.21-6.04,18.05-9.7v23.92v0c0,6.91-8.62,13.72-22.57,19.15 c-15.72,6.12-37.61,9.91-61.93,9.91c-6.48,0-12.77-0.27-18.79-0.78c-4.79-0.4-9.43-0.96-13.89-1.66 c-3.64-9.42-14.13-17.51-29.2-23.38C156.8,132.35,149.09,130.13,140.66,128.4z M181.56,210.85c0,6.91-8.62,13.72-22.57,19.15 c-15.72,6.12-37.61,9.91-61.93,9.91c-24.32,0-46.21-3.79-61.93-9.91c-13.94-5.43-22.57-12.24-22.57-19.15v-23.92 c4.84,3.67,10.93,6.93,18.05,9.7c17.13,6.67,40.63,10.79,66.45,10.79c25.82,0,49.32-4.13,66.45-10.79 c7.12-2.77,13.21-6.04,18.05-9.7V210.85z M30.62,241.68c17.13,6.67,40.63,10.79,66.45,10.79c25.82,0,49.32-4.13,66.45-10.79 c7.12-2.77,13.21-6.04,18.05-9.7v23.92c0,6.91-8.62,13.72-22.57,19.15c-15.72,6.12-37.61,9.91-61.93,9.91 c-24.32,0-46.21-3.79-61.93-9.91c-13.94-5.43-22.57-12.24-22.57-19.15v-23.92C17.4,235.64,23.5,238.91,30.62,241.68z M12.57,300.94 v-23.92c4.84,3.67,10.93,6.93,18.05,9.7c17.13,6.67,40.63,10.79,66.45,10.79c25.82,0,49.32-4.13,66.45-10.79 c7.12-2.77,13.21-6.04,18.05-9.7v23.92v0c0,6.91-8.62,13.72-22.57,19.15c-15.72,6.12-37.61,9.91-61.93,9.91 c-24.32,0-46.21-3.79-61.93-9.91C21.19,314.66,12.57,307.85,12.57,300.94L12.57,300.94z M163.46,22.48 c15.72-6.12,37.61-9.91,61.93-9.91c24.32,0,46.21,3.79,61.93,9.91c13.94,5.43,22.57,12.24,22.57,19.15 c0,6.91-8.62,13.72-22.57,19.15c-15.72,6.12-37.61,9.91-61.93,9.91c-24.32,0-46.21-3.79-61.93-9.91 c-13.94-5.43-22.57-12.24-22.57-19.15C140.9,34.72,149.52,27.9,163.46,22.48z M35.13,146.65c15.72-6.12,37.61-9.91,61.93-9.91 c12.97,0,25.23,1.09,36.25,3.02c0.06,0.01,0.11,0.02,0.17,0.03c9.58,1.69,18.22,4.02,25.52,6.86c13.94,5.43,22.57,12.24,22.57,19.15 s-8.62,13.72-22.57,19.15c-15.72,6.12-37.61,9.91-61.93,9.91c-24.32,0-46.21-3.79-61.93-9.91c-13.94-5.43-22.57-12.24-22.57-19.15 S21.19,152.08,35.13,146.65z M159,365.14c-15.72,6.12-37.61,9.91-61.93,9.91c-24.32,0-46.21-3.79-61.93-9.91 c-13.94-5.43-22.57-12.24-22.57-19.15v-23.92c4.84,3.67,10.93,6.93,18.05,9.7c17.13,6.67,40.63,10.79,66.45,10.79 c25.82,0,49.32-4.13,66.45-10.79c7.12-2.77,13.21-6.04,18.05-9.7v23.92C181.56,352.89,172.94,359.71,159,365.14z M225.4,340.96 c-6.46,0-12.72-0.27-18.73-0.77c-4.31-0.36-8.49-0.85-12.54-1.45v-32.36c1.63,0.22,3.27,0.44,4.96,0.63 c3.06,0.35,6.22,0.64,9.49,0.87c2.43,3.87,5.47,7.81,9.06,11.76c6.31,6.91,14.41,13.97,23.9,20.75 C236.36,340.76,230.97,340.96,225.4,340.96z M366.63,359.03c-3.06,6.18-13.83,8.46-28.75,7.13c-16.81-1.49-38.1-7.81-59.88-18.59 l-0.05-0.02c-21.73-10.77-39.64-23.87-51.03-36.35c-3.72-4.07-6.7-7.99-8.83-11.63c-0.21-0.55-0.5-1.06-0.85-1.52 c-2.99-5.61-3.85-10.47-2.07-14.06l10.61-21.43c2.7,5.43,6.71,11.06,11.85,16.7c12.37,13.55,31.61,27.68,54.8,39.17 c23.15,11.46,46.05,18.2,64.35,19.83c7.61,0.68,14.52,0.45,20.48-0.69L366.63,359.03z"/></g></svg>