<?xml version="1.0" encoding="UTF-8" standalone="no"?><svg xmlns="http://www.w3.org/2000/svg" xmlns:xlink="http://www.w3.org/1999/xlink" contentScriptType="text/ecmascript" fill="#007ac8" width="367.2" zoomAndPan="magnify" contentStyleType="text/css" viewBox="0.0 0.0 367.2 400.9" height="400.9" preserveAspectRatio="xMidYMid meet" version="1"><g id="change1_1"><path d="M364.84,362.1l-55.59-64.18c-0.55-15.99-2.62-31.2-6.23-45.62c-3.68-14.72-8.94-28.65-15.78-41.78l-1.06-68.21 c-0.32-19.97-0.62-36.66-0.88-50.06c-0.02-0.97-0.24-1.88-0.63-2.69c-1.01-2.09-2.55-3.74-4.52-4.93c-3.07-1.85-7.13-2.5-11.71-1.94 c-3.81,0.47-8.18,1.8-12.71,3.99c-5.27,2.54-10.85,6.32-16.09,11.3V24.94c0-6.83-2.8-13.05-7.32-17.59l-0.03-0.03 C227.77,2.8,221.54,0,214.71,0H71.03C64.2,0,57.98,2.8,53.43,7.32l-0.03,0.03c-4.52,4.53-7.32,10.76-7.32,17.59v72.5 c-4.34-2.79-9.48-4.42-14.98-4.42h-3.23c-7.67,0-14.64,3.13-19.69,8.18C3.14,106.25,0,113.23,0,120.9c0,7.65,3.14,14.62,8.18,19.67 l0.03,0.03c0.59,0.58,1.2,1.14,1.83,1.67c-0.64,0.54-1.27,1.1-1.86,1.7C3.14,149.01,0,155.98,0,163.66c0,7.65,3.14,14.62,8.18,19.67 l0.03,0.03c0.6,0.6,1.24,1.18,1.89,1.72c-0.67,0.55-1.31,1.13-1.92,1.75C3.14,191.86,0,198.84,0,206.51 c0,7.65,3.14,14.62,8.18,19.67l0.03,0.03c0.59,0.58,1.2,1.14,1.83,1.67c-0.64,0.54-1.27,1.1-1.86,1.7C3.14,234.61,0,241.59,0,249.26 c0,7.65,3.14,14.62,8.18,19.67l0.03,0.03c5.05,5.05,12.02,8.18,19.67,8.18h3.23c5.5,0,10.64-1.62,14.98-4.4v30.51 c0,6.83,2.8,13.05,7.32,17.59l0.03,0.03c4.53,4.52,10.76,7.32,17.59,7.32H95.4c9.15,9.09,20.35,16.31,33.66,21.61 c13.27,5.28,28.57,8.67,45.88,10.13l26.69,37.36c2.06,2.89,6.08,3.57,8.97,1.51c2.89-2.06,3.57-6.08,1.51-8.97l-28.26-39.56 c-1.06-1.66-2.86-2.81-4.97-2.96c-17.31-1.23-32.34-4.39-45.08-9.46c-6.72-2.68-12.8-5.91-18.29-9.67h99.2 c6.83,0,13.05-2.8,17.59-7.32l0.03-0.03c4.52-4.53,7.32-10.76,7.32-17.59V118.03c6.21-9.64,14.36-16.23,21.68-19.77 c3.2-1.55,6.18-2.47,8.68-2.78c1.03-0.12,1.88-0.16,2.51-0.09l0.82,47.12l1.08,69.26c-0.08,1.16,0.15,2.35,0.74,3.45 c6.71,12.62,11.83,26.02,15.38,40.2c3.56,14.22,5.54,29.21,5.94,44.95c-0.01,1.5,0.51,3.01,1.57,4.23l57.08,65.91 c2.32,2.68,6.39,2.98,9.07,0.66C366.87,368.85,367.16,364.79,364.84,362.1z M17.29,131.49c-2.71-2.72-4.39-6.46-4.39-10.59 c0-4.11,1.69-7.86,4.4-10.57c2.71-2.71,6.46-4.4,10.57-4.4h3.23l0,0c4.13,0,7.88,1.68,10.57,4.38l0.03,0.03 c2.7,2.7,4.38,6.44,4.38,10.57c0,4.11-1.69,7.86-4.4,10.57c-2.43,2.43-5.68,4.02-9.27,4.34c-0.43-0.02-0.86-0.03-1.3-0.03h-3.23 c-0.44,0-0.87,0.01-1.3,0.03C22.97,135.5,19.72,133.9,17.29,131.49z M17.29,174.24c-2.71-2.72-4.39-6.46-4.39-10.59 c0-4.11,1.69-7.86,4.4-10.57c2.43-2.43,5.68-4.02,9.28-4.34c0.43,0.02,0.86,0.03,1.29,0.03h3.23c0.44,0,0.87-0.01,1.3-0.03 c3.61,0.31,6.87,1.9,9.28,4.31l0.03,0.03c2.7,2.7,4.38,6.44,4.38,10.57c0,4.11-1.69,7.86-4.4,10.57c-2.71,2.71-6.46,4.4-10.57,4.4 c0,0,0,0-0.01,0h-3.23c0,0,0,0-0.01,0C23.75,178.63,20,176.95,17.29,174.24z M17.29,217.09c-2.71-2.72-4.39-6.46-4.39-10.59 c0-4.11,1.69-7.86,4.4-10.57c2.71-2.71,6.46-4.4,10.57-4.4h3.23h0l0,0c4.13,0,7.88,1.68,10.57,4.38l0.03,0.03 c2.7,2.7,4.38,6.44,4.38,10.57c0,4.11-1.69,7.86-4.4,10.57c-2.43,2.43-5.68,4.02-9.28,4.34c-0.43-0.02-0.86-0.03-1.29-0.03h-3.23 c-0.44,0-0.87,0.01-1.3,0.03C22.97,221.1,19.72,219.51,17.29,217.09z M41.68,259.83c-2.71,2.71-6.46,4.4-10.57,4.4h-3.23 c-4.12,0-7.87-1.68-10.59-4.39c-2.71-2.72-4.39-6.46-4.39-10.59c0-4.11,1.69-7.86,4.4-10.57c2.43-2.43,5.69-4.02,9.29-4.34 c0.43,0.02,0.86,0.03,1.29,0.03h3.23c0.43,0,0.86-0.01,1.29-0.03c3.61,0.31,6.87,1.9,9.28,4.31l0.03,0.03 c2.7,2.7,4.38,6.44,4.38,10.57C46.08,253.37,44.39,257.12,41.68,259.83z M226.75,303.25c0,3.32-1.35,6.33-3.52,8.5l-0.03,0.03 c-2.17,2.17-5.18,3.52-8.5,3.52H71.03c-3.32,0-6.33-1.35-8.5-3.52l-0.03-0.03c-2.17-2.17-3.52-5.18-3.52-8.5V24.94 c0-3.32,1.35-6.33,3.52-8.5l0.03-0.03c2.17-2.17,5.18-3.52,8.5-3.52h143.68c3.32,0,6.33,1.35,8.5,3.52l0.03,0.03 c2.17,2.17,3.52,5.18,3.52,8.5V303.25z M188.33,109.14h-16.68v-4.32c0-7.92-3.24-15.12-8.45-20.33c-5.21-5.21-12.41-8.45-20.33-8.45 c-7.71,0-14.75,3.08-19.93,8.08l-0.41,0.37c-5.21,5.21-8.45,12.41-8.45,20.33v4.32H97.4c-3.56,0-6.45,2.89-6.45,6.45v95.71 c0,3.56,2.89,6.45,6.45,6.45h90.93c3.56,0,6.45-2.89,6.45-6.45v-95.71C194.78,112.02,191.89,109.14,188.33,109.14z M126.98,104.82 c0-4.36,1.79-8.33,4.67-11.21l0.27-0.29c2.86-2.71,6.71-4.38,10.94-4.38c4.36,0,8.33,1.79,11.21,4.67s4.67,6.85,4.67,11.21v4.32 h-31.77V104.82z M181.88,204.85h-78.03v-82.81h10.23v11.1c0,3.56,2.89,6.45,6.45,6.45c3.56,0,6.45-2.89,6.45-6.45l0,0v-11.1h31.77 v11.1c0,3.56,2.89,6.45,6.45,6.45c3.56,0,6.45-2.89,6.45-6.45v-11.1h10.23V204.85z M155.18,40.26c0-3.56,2.89-6.45,6.45-6.45h2.31 c3.56,0,6.45,2.89,6.45,6.45c0,3.56-2.89,6.45-6.45,6.45h-2.31C158.06,46.71,155.18,43.82,155.18,40.26z M115.34,40.26 c0-3.56,2.89-6.45,6.45-6.45h20.1c3.56,0,6.45,2.89,6.45,6.45c0,3.56-2.89,6.45-6.45,6.45h-20.1 C118.23,46.71,115.34,43.82,115.34,40.26z M188.61,260.11c-3.79-3.79-9.02-6.15-14.77-6.15h-62.25c-5.74,0-10.98,2.36-14.77,6.15 l-0.03,0.03c-3.79,3.79-6.15,9.02-6.15,14.77c0,5.74,2.36,10.98,6.15,14.77l0.03,0.03c3.79,3.79,9.03,6.15,14.77,6.15h62.25 c5.75,0,10.98-2.36,14.77-6.15l0.03-0.03c3.79-3.79,6.15-9.03,6.15-14.77c0-5.75-2.36-10.98-6.15-14.77L188.61,260.11z M179.53,280.6c-1.46,1.45-3.47,2.35-5.69,2.35h-62.25c-2.22,0-4.23-0.91-5.69-2.35c-1.45-1.46-2.35-3.47-2.35-5.69 c0-2.22,0.9-4.23,2.35-5.69c1.46-1.45,3.47-2.35,5.69-2.35h62.25c2.22,0,4.23,0.9,5.69,2.35c1.45,1.46,2.35,3.47,2.35,5.69 C181.88,277.12,180.98,279.14,179.53,280.6z M119.13,241.78c-3.56,0-6.45-2.89-6.45-6.45c0-3.56,2.89-6.45,6.45-6.45h47.48 c3.56,0,6.45,2.89,6.45,6.45c0,3.56-2.89,6.45-6.45,6.45H119.13z"/></g></svg>